#N canvas 0 0 1904 993 12;
#X obj 280 412 random 128;
#X obj 416 408 random 128;
#X obj 278 446 ctlout 1 1;
#X obj 413 452 ctlout 2 1;
#X obj 293 213 tgl 19 0 empty empty empty 0 -10 0 12 #fcfcfc #000000
#000000 1 1;
#X obj 276 245 metro 3650;
#X obj 341 190 random 1650;
#X obj 275 321 sel 0 1;
#X obj 251 22 notein;
#X floatatom 255 58 5 0 0 0 - - -, f 5;
#X obj 258 107 sel 48;
#X obj 260 132 counter 1 2;
#X floatatom 260 160 5 0 0 0 - - -, f 5;
#X obj 250 183 sel 1;
#X obj 270 290 random 5;
#X obj 370 140 counter 1 2;
#X obj 368 115 sel 36;
#X obj 450 180 sel 1;
#X obj 446 212 random 8;
#X obj 535 204 random 4673;
#X obj 540 230 + 400;
#X connect 0 0 2 0;
#X connect 1 0 3 0;
#X connect 4 0 5 0;
#X connect 5 0 6 0;
#X connect 5 0 14 0;
#X connect 6 0 5 1;
#X connect 7 0 0 0;
#X connect 7 1 1 0;
#X connect 8 0 9 0;
#X connect 9 0 10 0;
#X connect 9 0 16 0;
#X connect 10 0 11 0;
#X connect 11 0 12 0;
#X connect 12 0 13 0;
#X connect 13 0 4 0;
#X connect 14 0 7 0;
#X connect 15 0 17 0;
#X connect 16 0 15 0;
#X connect 17 0 18 0;
#X connect 17 0 19 0;
#X connect 18 0 14 1;
#X connect 19 0 20 0;
#X connect 20 0 6 1;
