#N canvas -8 -8 1920 984 10;
#X obj 380 350 tgl 15 0 empty empty empty 17 7 0 10 #fcfcfc #000000
#000000 1 1;
#X obj 380 370 metro 10000;
#X obj 380 390 bng 15 250 50 0 empty empty empty 17 7 0 10 #fcfcfc
#000000 #000000;
#X obj 310 400 phasor~;
#X obj 313 429 lop~ 6000;
#X obj 307 463 *~;
#X floatatom 310 310 5 0 0 0 - - -, f 5;
#X obj 310 340 mtof;
#X floatatom 310 370 5 0 0 0 - - -, f 5;
#X obj 380 430 line 0 3;
#X msg 380 410 0.1 300;
#X obj 469 370 delay 2000;
#X msg 470 390 0 700;
#X obj 305 236 loadbang;
#X msg 310 270 60;
#X obj 1540 840 dac~ 1 2;
#X obj 1540 810 catch~ out;
#X obj 310 490 throw~ out;
#X floatatom 440 310 5 0 0 0 - - -, f 5;
#X floatatom 520 340 5 0 0 0 - - -, f 5;
#X obj 755 364 tgl 15 0 empty empty empty 17 7 0 10 #fcfcfc #000000
#000000 1 1;
#X obj 755 384 metro 10000;
#X obj 755 404 bng 15 250 50 0 empty empty empty 17 7 0 10 #fcfcfc
#000000 #000000;
#X obj 685 414 phasor~;
#X obj 688 443 lop~ 6000;
#X obj 682 477 *~;
#X floatatom 685 324 5 0 0 0 - - -, f 5;
#X obj 685 354 mtof;
#X floatatom 685 384 5 0 0 0 - - -, f 5;
#X obj 755 444 line 0 3;
#X msg 755 424 0.1 300;
#X obj 844 384 delay 2000;
#X msg 845 404 0 700;
#X obj 680 250 loadbang;
#X obj 685 504 throw~ out;
#X floatatom 815 324 5 0 0 0 - - -, f 5;
#X floatatom 895 354 5 0 0 0 - - -, f 5;
#X msg 685 284 63;
#X obj 795 238 loadbang;
#X msg 800 290 20000;
#X obj 890 270 loadbang;
#X msg 895 322 3500;
#X obj 330 710 tgl 15 0 empty empty empty 17 7 0 10 #fcfcfc #000000
#000000 1 1;
#X obj 330 730 metro 10000;
#X obj 330 750 bng 15 250 50 0 empty empty empty 17 7 0 10 #fcfcfc
#000000 #000000;
#X obj 260 760 phasor~;
#X obj 263 789 lop~ 6000;
#X obj 257 823 *~;
#X floatatom 260 670 5 0 0 0 - - -, f 5;
#X obj 260 700 mtof;
#X floatatom 260 730 5 0 0 0 - - -, f 5;
#X obj 330 790 line 0 3;
#X msg 330 770 0.1 300;
#X obj 419 730 delay 2000;
#X msg 420 750 0 700;
#X obj 255 596 loadbang;
#X obj 260 850 throw~ out;
#X floatatom 390 670 5 0 0 0 - - -, f 5;
#X floatatom 470 700 5 0 0 0 - - -, f 5;
#X obj 370 584 loadbang;
#X obj 465 616 loadbang;
#X msg 260 630 68;
#X msg 375 636 22000;
#X msg 470 668 3000;
#X obj 710 710 tgl 15 0 empty empty empty 17 7 0 10 #fcfcfc #000000
#000000 1 1;
#X obj 710 730 metro 10000;
#X obj 710 750 bng 15 250 50 0 empty empty empty 17 7 0 10 #fcfcfc
#000000 #000000;
#X obj 640 760 phasor~;
#X obj 643 789 lop~ 6000;
#X obj 637 823 *~;
#X floatatom 640 670 5 0 0 0 - - -, f 5;
#X obj 640 700 mtof;
#X floatatom 640 730 5 0 0 0 - - -, f 5;
#X obj 710 790 line 0 3;
#X msg 710 770 0.1 300;
#X obj 799 730 delay 2000;
#X msg 800 750 0 700;
#X obj 635 596 loadbang;
#X obj 640 850 throw~ out;
#X floatatom 770 670 5 0 0 0 - - -, f 5;
#X floatatom 850 700 5 0 0 0 - - -, f 5;
#X obj 750 584 loadbang;
#X obj 845 616 loadbang;
#X msg 640 630 55;
#X msg 755 636 18000;
#X msg 850 668 3300;
#X obj 1105 344 tgl 15 0 empty empty empty 17 7 0 10 #fcfcfc #000000
#000000 1 1;
#X obj 1105 364 metro 10000;
#X obj 1105 384 bng 15 250 50 0 empty empty empty 17 7 0 10 #fcfcfc
#000000 #000000;
#X obj 1035 394 phasor~;
#X obj 1038 423 lop~ 6000;
#X obj 1032 457 *~;
#X floatatom 1035 304 5 0 0 0 - - -, f 5;
#X obj 1035 334 mtof;
#X floatatom 1035 364 5 0 0 0 - - -, f 5;
#X obj 1105 424 line 0 3;
#X msg 1105 404 0.1 300;
#X obj 1194 364 delay 2000;
#X msg 1195 384 0 700;
#X obj 1030 230 loadbang;
#X obj 1035 484 throw~ out;
#X floatatom 1165 304 5 0 0 0 - - -, f 5;
#X floatatom 1245 334 5 0 0 0 - - -, f 5;
#X obj 1145 218 loadbang;
#X obj 1240 250 loadbang;
#X msg 1035 264 36;
#X msg 1150 270 16000;
#X msg 1245 302 5000;
#X obj 860 98 tgl 15 0 empty empty empty 17 7 0 10 #fcfcfc #000000
#000000 1 1;
#X obj 860 120 send onOff;
#X obj 740 310 receive onOff, f 7;
#X obj 1100 300 receive onOff, f 7;
#X obj 360 300 receive onOff, f 7;
#X obj 320 660 receive onOff, f 7;
#X obj 700 670 receive onOff, f 7;
#X obj 859 40 loadbang;
#X msg 860 64 1;
#X connect 0 0 1 0;
#X connect 1 0 2 0;
#X connect 2 0 10 0;
#X connect 2 0 11 0;
#X connect 3 0 4 0;
#X connect 4 0 5 0;
#X connect 5 0 17 0;
#X connect 6 0 7 0;
#X connect 7 0 8 0;
#X connect 8 0 3 0;
#X connect 9 0 5 1;
#X connect 10 0 9 0;
#X connect 11 0 12 0;
#X connect 12 0 9 0;
#X connect 13 0 14 0;
#X connect 14 0 6 0;
#X connect 16 0 15 0;
#X connect 16 0 15 1;
#X connect 18 0 1 1;
#X connect 19 0 11 1;
#X connect 20 0 21 0;
#X connect 21 0 22 0;
#X connect 22 0 30 0;
#X connect 22 0 31 0;
#X connect 23 0 24 0;
#X connect 24 0 25 0;
#X connect 25 0 34 0;
#X connect 26 0 27 0;
#X connect 27 0 28 0;
#X connect 28 0 23 0;
#X connect 29 0 25 1;
#X connect 30 0 29 0;
#X connect 31 0 32 0;
#X connect 32 0 29 0;
#X connect 33 0 37 0;
#X connect 35 0 21 1;
#X connect 36 0 31 1;
#X connect 37 0 26 0;
#X connect 38 0 39 0;
#X connect 39 0 35 0;
#X connect 40 0 41 0;
#X connect 41 0 36 0;
#X connect 42 0 43 0;
#X connect 43 0 44 0;
#X connect 44 0 52 0;
#X connect 44 0 53 0;
#X connect 45 0 46 0;
#X connect 46 0 47 0;
#X connect 47 0 56 0;
#X connect 48 0 49 0;
#X connect 49 0 50 0;
#X connect 50 0 45 0;
#X connect 51 0 47 1;
#X connect 52 0 51 0;
#X connect 53 0 54 0;
#X connect 54 0 51 0;
#X connect 55 0 61 0;
#X connect 57 0 43 1;
#X connect 58 0 53 1;
#X connect 59 0 62 0;
#X connect 60 0 63 0;
#X connect 61 0 48 0;
#X connect 62 0 57 0;
#X connect 63 0 58 0;
#X connect 64 0 65 0;
#X connect 65 0 66 0;
#X connect 66 0 74 0;
#X connect 66 0 75 0;
#X connect 67 0 68 0;
#X connect 68 0 69 0;
#X connect 69 0 78 0;
#X connect 70 0 71 0;
#X connect 71 0 72 0;
#X connect 72 0 67 0;
#X connect 73 0 69 1;
#X connect 74 0 73 0;
#X connect 75 0 76 0;
#X connect 76 0 73 0;
#X connect 77 0 83 0;
#X connect 79 0 65 1;
#X connect 80 0 75 1;
#X connect 81 0 84 0;
#X connect 82 0 85 0;
#X connect 83 0 70 0;
#X connect 84 0 79 0;
#X connect 85 0 80 0;
#X connect 86 0 87 0;
#X connect 87 0 88 0;
#X connect 88 0 96 0;
#X connect 88 0 97 0;
#X connect 89 0 90 0;
#X connect 90 0 91 0;
#X connect 91 0 100 0;
#X connect 92 0 93 0;
#X connect 93 0 94 0;
#X connect 94 0 89 0;
#X connect 95 0 91 1;
#X connect 96 0 95 0;
#X connect 97 0 98 0;
#X connect 98 0 95 0;
#X connect 99 0 105 0;
#X connect 101 0 87 1;
#X connect 102 0 97 1;
#X connect 103 0 106 0;
#X connect 104 0 107 0;
#X connect 105 0 92 0;
#X connect 106 0 101 0;
#X connect 107 0 102 0;
#X connect 108 0 109 0;
#X connect 110 0 20 0;
#X connect 111 0 86 0;
#X connect 112 0 0 0;
#X connect 113 0 42 0;
#X connect 114 0 64 0;
#X connect 115 0 116 0;
#X connect 116 0 108 0;
