#N canvas 0 0 1904 968 10;
#X obj 1074 168 send onOff;
#X obj 1080 140 tgl 15 0 empty empty empty 17 7 0 10 #fcfcfc #000000
#000000 0 1;
#X obj 510 250 *~;
#X obj 560 250 *~;
#X obj 585 103 metro 500;
#X obj 640 0 random 5;
#X obj 642 29 sel 0 1 2;
#X obj 415 123 metro 500;
#X obj 470 20 random 5;
#X obj 472 49 sel 0 1 2;
#X obj 556 8 receive onOff;
#X obj 428 212 line~ 0 3;
#X obj 596 188 line~ 0 3;
#X obj 520 350 dac~ 1 2;
#X obj 510 290 *~ 0.3;
#X obj 580 290 *~ 0.3;
#X msg 633 55 125;
#X msg 672 59 250;
#X msg 722 59 750;
#X msg 463 75 125;
#X msg 502 79 250;
#X msg 552 79 750;
#X obj 507 215 phasor~ 33;
#X msg 588 136 1 \, 0 322;
#X msg 420 160 1 \, 0 322;
#X obj 540 690 *~;
#X obj 590 690 *~;
#X obj 615 543 metro 500;
#X obj 670 440 random 5;
#X obj 672 469 sel 0 1 2;
#X obj 445 563 metro 500;
#X obj 500 460 random 5;
#X obj 502 489 sel 0 1 2;
#X obj 586 448 receive onOff;
#X obj 458 652 line~ 0 3;
#X obj 626 628 line~ 0 3;
#X obj 550 790 dac~ 1 2;
#X obj 540 730 *~ 0.3;
#X obj 610 730 *~ 0.3;
#X msg 663 495 125;
#X msg 702 499 250;
#X msg 752 499 750;
#X msg 493 515 125;
#X msg 532 519 250;
#X msg 582 519 750;
#X msg 618 576 1 \, 0 322;
#X msg 450 600 1 \, 0 322;
#X obj 537 655 phasor~ 467;
#X obj 1000 680 *~;
#X obj 1050 680 *~;
#X obj 1075 533 metro 500;
#X obj 1130 430 random 5;
#X obj 1132 459 sel 0 1 2;
#X obj 905 553 metro 500;
#X obj 960 450 random 5;
#X obj 962 479 sel 0 1 2;
#X obj 1046 438 receive onOff;
#X obj 918 642 line~ 0 3;
#X obj 1086 618 line~ 0 3;
#X obj 1010 780 dac~ 1 2;
#X obj 1000 720 *~ 0.3;
#X obj 1070 720 *~ 0.3;
#X msg 1123 485 125;
#X msg 1162 489 250;
#X msg 1212 489 750;
#X msg 953 505 125;
#X msg 992 509 250;
#X msg 1042 509 750;
#X msg 1078 566 1 \, 0 322;
#X msg 910 590 1 \, 0 322;
#X obj 997 645 phasor~ 1111;
#X connect 1 0 0 0;
#X connect 2 0 14 0;
#X connect 3 0 15 0;
#X connect 4 0 5 0;
#X connect 4 0 23 0;
#X connect 5 0 6 0;
#X connect 6 0 16 0;
#X connect 6 1 17 0;
#X connect 6 2 18 0;
#X connect 7 0 8 0;
#X connect 7 0 24 0;
#X connect 8 0 9 0;
#X connect 9 0 19 0;
#X connect 9 1 20 0;
#X connect 9 2 21 0;
#X connect 10 0 4 0;
#X connect 10 0 7 0;
#X connect 11 0 2 1;
#X connect 12 0 3 1;
#X connect 14 0 13 0;
#X connect 15 0 13 1;
#X connect 16 0 4 1;
#X connect 17 0 4 1;
#X connect 18 0 4 1;
#X connect 19 0 7 1;
#X connect 20 0 7 1;
#X connect 21 0 7 1;
#X connect 22 0 3 0;
#X connect 22 0 2 0;
#X connect 23 0 12 0;
#X connect 24 0 11 0;
#X connect 25 0 37 0;
#X connect 26 0 38 0;
#X connect 27 0 28 0;
#X connect 27 0 45 0;
#X connect 28 0 29 0;
#X connect 29 0 39 0;
#X connect 29 1 40 0;
#X connect 29 2 41 0;
#X connect 30 0 31 0;
#X connect 30 0 46 0;
#X connect 31 0 32 0;
#X connect 32 0 42 0;
#X connect 32 1 43 0;
#X connect 32 2 44 0;
#X connect 33 0 27 0;
#X connect 33 0 30 0;
#X connect 34 0 25 1;
#X connect 35 0 26 1;
#X connect 37 0 36 0;
#X connect 38 0 36 1;
#X connect 39 0 27 1;
#X connect 40 0 27 1;
#X connect 41 0 27 1;
#X connect 42 0 30 1;
#X connect 43 0 30 1;
#X connect 44 0 30 1;
#X connect 45 0 35 0;
#X connect 46 0 34 0;
#X connect 47 0 26 0;
#X connect 47 0 25 0;
#X connect 48 0 60 0;
#X connect 49 0 61 0;
#X connect 50 0 51 0;
#X connect 50 0 68 0;
#X connect 51 0 52 0;
#X connect 52 0 62 0;
#X connect 52 1 63 0;
#X connect 52 2 64 0;
#X connect 53 0 54 0;
#X connect 53 0 69 0;
#X connect 54 0 55 0;
#X connect 55 0 65 0;
#X connect 55 1 66 0;
#X connect 55 2 67 0;
#X connect 56 0 50 0;
#X connect 56 0 53 0;
#X connect 57 0 48 1;
#X connect 58 0 49 1;
#X connect 60 0 59 0;
#X connect 61 0 59 1;
#X connect 62 0 50 1;
#X connect 63 0 50 1;
#X connect 64 0 50 1;
#X connect 65 0 53 1;
#X connect 66 0 53 1;
#X connect 67 0 53 1;
#X connect 68 0 58 0;
#X connect 69 0 57 0;
#X connect 70 0 49 0;
#X connect 70 0 48 0;
